<?xml version="1.0" encoding="utf-8"?>
<!-- Generated by IcoMoon.io -->
<svg version="1.1" xmlns="http://www.w3.org/2000/svg" xmlns:xlink="http://www.w3.org/1999/xlink" width="28" height="28" viewBox="0 0 28 28">
<svg id="icon-sun-o" viewBox="0 0 28 28" x="0" y="0">
<path d="M23 14c0-4.969-4.031-9-9-9s-9 4.031-9 9 4.031 9 9 9 9-4.031 9-9zM27.312 18.328c-0.047 0.156-0.172 0.266-0.313 0.313l-4.562 1.5v4.781c0 0.156-0.078 0.313-0.203 0.406-0.141 0.094-0.297 0.125-0.453 0.063l-4.562-1.469-2.812 3.875c-0.094 0.125-0.25 0.203-0.406 0.203s-0.313-0.078-0.406-0.203l-2.812-3.875-4.562 1.469c-0.156 0.063-0.313 0.031-0.453-0.063-0.125-0.094-0.203-0.25-0.203-0.406v-4.781l-4.562-1.5c-0.141-0.047-0.266-0.156-0.313-0.313s-0.031-0.328 0.063-0.453l2.812-3.875-2.812-3.875c-0.094-0.141-0.109-0.297-0.063-0.453s0.172-0.266 0.313-0.313l4.562-1.5v-4.781c0-0.156 0.078-0.313 0.203-0.406 0.141-0.094 0.297-0.125 0.453-0.063l4.562 1.469 2.812-3.875c0.187-0.25 0.625-0.25 0.812 0l2.812 3.875 4.562-1.469c0.156-0.063 0.313-0.031 0.453 0.063 0.125 0.094 0.203 0.25 0.203 0.406v4.781l4.562 1.5c0.141 0.047 0.266 0.156 0.313 0.313s0.031 0.313-0.063 0.453l-2.812 3.875 2.812 3.875c0.094 0.125 0.109 0.297 0.063 0.453z"></path>
</svg>
<svg id="icon-moon-fill" viewBox="0 0 28 28" x="0" y="0">
<path d="M21.554 19.411c-7.164 0-12.967-5.807-12.967-12.968 0-2.358 0.676-4.539 1.777-6.443-5.971 1.722-10.364 7.164-10.364 13.688 0 7.902 6.405 14.311 14.308 14.311 6.525 0 11.97-4.395 13.692-10.364-1.907 1.097-4.088 1.774-6.446 1.774z"></path>
</svg>
<svg id="icon-sun" viewBox="0 0 28 28" x="0" y="0">
<path d="M14.001 10.5c1.928 0 3.5 1.571 3.5 3.5s-1.572 3.5-3.5 3.5-3.5-1.571-3.5-3.5 1.572-3.5 3.5-3.5zM14.001 7c-3.866 0-7 3.134-7 7s3.134 7 7 7c3.866 0 6.999-3.134 6.999-7s-3.133-7-6.999-7v0zM12.25 1.75c0-0.966 0.784-1.75 1.75-1.75s1.75 0.784 1.75 1.75c0 0.966-0.784 1.75-1.75 1.75s-1.75-0.784-1.75-1.75zM3.5 5.25c0-0.966 0.784-1.75 1.75-1.75s1.75 0.784 1.75 1.75c0 0.966-0.784 1.75-1.75 1.75s-1.75-0.784-1.75-1.75zM1.75 12.25c0.967 0 1.75 0.783 1.75 1.75 0 0.969-0.783 1.75-1.75 1.75s-1.75-0.781-1.75-1.75c0-0.967 0.783-1.75 1.75-1.75zM3.5 22.75c0-0.966 0.784-1.75 1.75-1.75s1.75 0.784 1.75 1.75c0 0.966-0.784 1.75-1.75 1.75s-1.75-0.784-1.75-1.75zM12.25 26.25c0-0.97 0.783-1.75 1.75-1.75 0.97 0 1.75 0.78 1.75 1.75 0 0.964-0.78 1.75-1.75 1.75-0.967 0-1.75-0.786-1.75-1.75zM21 22.75c0-0.966 0.784-1.75 1.75-1.75s1.75 0.784 1.75 1.75c0 0.966-0.784 1.75-1.75 1.75s-1.75-0.784-1.75-1.75zM26.25 15.75c-0.966 0-1.75-0.784-1.75-1.75 0-0.969 0.784-1.75 1.75-1.75s1.75 0.781 1.75 1.75c0 0.966-0.784 1.75-1.75 1.75zM21 5.25c0-0.966 0.784-1.75 1.75-1.75s1.75 0.784 1.75 1.75c0 0.966-0.784 1.75-1.75 1.75s-1.75-0.784-1.75-1.75z"></path>
</svg>
</svg>
