<!-- Generated by IcoMoon.io -->
<svg version="1.1" xmlns="http://www.w3.org/2000/svg" width="28" height="28" viewBox="0 0 28 28">
<title>sun</title>
<path d="M14.001 10.5c1.928 0 3.5 1.571 3.5 3.5s-1.572 3.5-3.5 3.5-3.5-1.571-3.5-3.5 1.572-3.5 3.5-3.5zM14.001 7c-3.866 0-7 3.134-7 7s3.134 7 7 7c3.866 0 6.999-3.134 6.999-7s-3.133-7-6.999-7v0zM12.25 1.75c0-0.966 0.784-1.75 1.75-1.75s1.75 0.784 1.75 1.75c0 0.966-0.784 1.75-1.75 1.75s-1.75-0.784-1.75-1.75zM3.5 5.25c0-0.966 0.784-1.75 1.75-1.75s1.75 0.784 1.75 1.75c0 0.966-0.784 1.75-1.75 1.75s-1.75-0.784-1.75-1.75zM1.75 12.25c0.967 0 1.75 0.783 1.75 1.75 0 0.969-0.783 1.75-1.75 1.75s-1.75-0.781-1.75-1.75c0-0.967 0.783-1.75 1.75-1.75zM3.5 22.75c0-0.966 0.784-1.75 1.75-1.75s1.75 0.784 1.75 1.75c0 0.966-0.784 1.75-1.75 1.75s-1.75-0.784-1.75-1.75zM12.25 26.25c0-0.97 0.783-1.75 1.75-1.75 0.97 0 1.75 0.78 1.75 1.75 0 0.964-0.78 1.75-1.75 1.75-0.967 0-1.75-0.786-1.75-1.75zM21 22.75c0-0.966 0.784-1.75 1.75-1.75s1.75 0.784 1.75 1.75c0 0.966-0.784 1.75-1.75 1.75s-1.75-0.784-1.75-1.75zM26.25 15.75c-0.966 0-1.75-0.784-1.75-1.75 0-0.969 0.784-1.75 1.75-1.75s1.75 0.781 1.75 1.75c0 0.966-0.784 1.75-1.75 1.75zM21 5.25c0-0.966 0.784-1.75 1.75-1.75s1.75 0.784 1.75 1.75c0 0.966-0.784 1.75-1.75 1.75s-1.75-0.784-1.75-1.75z"></path>
</svg>
